<svg id="logo-frame" xmlns="http://www.w3.org/2000/svg" x="0px" y="0px" width="100%" height="100%">

	<defs>
		<clipPath id="large-logo" clipPathUnits="userSpaceOnUse">
	<path d="M1962.4,493h-79.3l45.4-54H1768l-42.4,54h-31v-54h-134.8v114c-12.5-20.1-30-36-52-47.4
		c-9.2-14.7-20.9-27.6-35.2-38.3c-32.2-24.4-75.3-36.7-128.1-36.7c-60.8,0-111.9,18.1-147.8,52.3c-36.1,34.4-55.2,83.6-55.2,142.3
		c0,5.9,0.2,11.7,0.6,17.5L1094.8,493h-36.7l-17.1-54H862.2l-81.8,254.2V493.6h-50v-54H598v117.2l-41.4-63.2h-21.1l-35.3-54H372.4
		v54h-63.8l45.6-54H194.8l-42.4,54h-31v-54H-14v374.2h78v26h106.8v-78.1l38.1,52.1H261l19,26h129.6l-20.4-26h61.2v26h106.2v-99.1
		l47.2,73.1h54.9l16.8,26h105v-26h52.8l-8.4,26h111l17.4-58.2h54.5l9.6,32.2h66.7l7.8,26h112.8l-31.6-99.9
		c7.1,10.8,15.3,20.8,24.6,29.8c25.8,24.9,59,41.5,97.8,49c30.6,19.9,69.4,30.7,114.5,30.7c55.8,0,105-17.4,133.8-49.2
		c6.5-6.9,11.8-13.2,16.2-19.8v33.4h78v26h0.6h106.8v-78.1l33.9,46.4l4.2,5.7h52.1l19,26H1984l-151.2-192.6L1962.4,493z
		 M372.4,792.4l-114-145.2l114-135.1V792.4z M1521.8,718.6c3.5-10.2,6.7-22.1,9.9-37l3.7-17h-145.1l-2.4,11
		c-5.2,23.8-21.2,35.8-47.5,35.8c-1.1,0-2.2,0-3.4-0.1c-1.2-9.9-1.6-22.6-1.6-39.5v-34.2c0.5-38.2,17.9-62.6,49.6-69
		c1.4,3.2,2.7,6.8,3.8,10.6l2.8,10.3h62.4c5.3,7,9.4,15.7,12.2,26h93.6v103.2H1521.8z"/>
	<path d="M-17.8,240.4l4.2,17.3c8.7,36.1,17,51.8,38.5,72.6c22.2,22.6,52,37,88.7,42.9c26.5,19.5,61.7,29.1,105.2,29.1
		c91.8,0,151.2-44.4,151.2-114c0-33-15-63.6-40.8-79.8c-7.2-4.4-13.8-8.1-20.9-11.4c-8.2-16.8-20.5-30.9-35.8-40.6
		c-5.3-3.2-10.3-6.1-15.3-8.7h95.3c-2.3-12.9-5.6-24.5-10-35h31.6v26h5.4v232h78v26H565V139h46.2v104.6c0,43.2,15.9,77,47.4,100.5
		c19.3,14.5,44,24.4,73.5,29.6c27.4,19.9,67.3,30.4,118.5,30.4c67.2,0,115.8-18,140.4-51v17.2h78v26h151.2c57.6,0,73.8-3,105-22.2
		c21-12.7,38.5-30.5,51.6-51.8V371h78v26c0,0,36.2,0,106.8,0c0-17.2,0-62.7,0-115.2c14.5,28.3,37.8,52.1,67.7,69
		c18.9,10.6,39.9,18.2,62.2,22.6c30,19.3,67.8,30.3,108.9,30.3c36,0,72-9,102-25.2C1955.8,349,1984,295,1984,220
		c0-70.9-31.3-126.3-83.6-156c-6-8.7-12.8-16.9-20.4-24.4C1844.7,4.5,1795.9-14,1738.8-14c-59.7,0-106.6,17-143.4,51.9
		c-14.1,13.4-25.2,27.3-33.8,42.6c0-18.8,0-30.3,0-30.3h-50v-54h-134.8v127.3c-9.8-16-22.1-29.9-36.6-40.9
		c-6.5-5.1-13.1-9.6-20-13.4c-9.9-14.5-21.8-27.3-35.4-37.7c-30.9-24.4-66-35.3-113.6-35.3H991v54.6h-29v-54H827.8v215.6
		c0,20-3.3,33.8-10,42.1c-4.5,5.5-11.3,9-20.6,10.4V50.2h-50v-54h-136v54h-12.8v-54H296.2V60c-3.5-2-7.2-3.8-11-5.4
		c-8.1-14.8-18.5-27.2-31.2-37c-25.3-19.6-58.8-29.2-102.2-29.2c-45,0-83.9,11.9-112.6,34.5C10.3,45.7-5.6,78-5.6,114
		c0,34.1,15.8,65.5,43.4,86.2l0.3,0.2c19.2,13.5,39.3,23.4,59.7,29.4c4.4,1.8,9.5,3.2,15.5,4.8c3,0.8,6,1.6,9.3,2.6l0.3,0.1
		c1.7,1,3.5,2.1,5.3,3.1H-17.8z M1789,182.4c0,30.7-3,48.8-5.5,58.5c-4.4,13.5-23,24.3-43.4,25.3c-1.8,0-3.2,0.3-4.2,0.6
		c-0.1,0-0.3,0-0.4,0c-1.7-12.1-2.3-28.2-2.3-51.6c0-20.4,1.2-37.2,4.2-49.8c5.3-20.9,23.3-35.9,47.1-40.8
		C1788.1,132.8,1789,144,1789,182.4z M1197.4,134.2c9.8,12.5,15,29.3,15,49.4c0,23.6-7.4,43-21.4,55.8c-4.2,3.9-9.1,7.2-14.6,10
		V134.2c0,0,19.8,0,19.8,0C1196.6,134.2,1197,134.2,1197.4,134.2z M166.6,256.6c1.5,0.7,3.3,1.3,5.3,2c0.1,0.6,0.1,1.2,0.1,1.8
		c0,10.9-9.8,14.8-19,14.8c-8.6,0-17.8-2.7-21-23l-1.7-10.7C141.6,247.7,153.7,252.9,166.6,256.6z M188.9,126.4
		c1.1-1.6,2.4-3.1,3.9-4.4h37.7c4.9,4.2,8.2,10.5,10,18.4C226.7,135.1,211.1,130.9,188.9,126.4z"/>
		</clipPath>
	</defs>
	
	<rect id="logo-rect" fill="url(#logo-pattern)" x="0%" y="0" width="100%" height="100%" />
	
	<g id='fillins'>
		<path d="M0,799.8h106.8V650.4L216,799.8h129.6L194.4,607.2L324,453.6H201.6l-94.2,120v-120H0V799.8z M386.4,799.8
		h106.2V615.6l118.8,184.2h105V453.6H612V636L492.6,453.6H386.4V799.8z M760.8,799.8h111l17.4-58.2h121.2l17.4,58.2h112.8
		L1030.8,453H872.4L760.8,799.8z M951,535.8L990.6,675h-80.4L951,535.8z M1344.6,444.6c-116.4,0-189,69-189,180.6
		c0,112.8,74.4,184.2,190.2,184.2c55.8,0,105-17.4,133.8-49.2c21-22.2,28.8-37.8,38.4-81.6h-116.4c-6.6,30-28.2,46.8-61.2,46.8
		c-18,0-34.8-5.4-48-16.2c-17.4-14.4-21-27.6-21-77.4v-34.2c0.6-45,24.6-70.8,67.8-70.8c33,0,54,16.2,63,48.6h114.6
		C1506.6,491.4,1444.2,444.6,1344.6,444.6 M1574.4,799.8h106.8V650.4l109.2,149.4H1920l-151.2-192.6L1898.4,453h-123.6l-94.2,120
		V453h-106.8v346.8H1574.4z"/>
	<path d="M0,254.4h118.2c3.6,22.8,15.6,34.8,34.8,34.8s33-11.4,33-28.8c0-16.2-10.2-24-41.4-31.8c-3-0.6-9-2.4-18-4.8
		c-10.2-3-18.6-4.8-24-7.2c-21-6-40.2-16.2-56.4-27.6c-24-18-37.8-45.6-37.8-75C8.4,48,67.8,2.4,151.8,2.4
		C231.6,2.4,276,37.2,288.6,108h-111c-1.8-20.4-12-32.4-30-32.4c-16.2,0-27,10.2-27,25.8c0,19.2,15,28.8,58.2,37.2
		c45.6,9,63,15.6,86.4,30c25.8,16.2,40.8,46.8,40.8,79.8c0,69.6-59.4,114-151.2,114c-52.2,0-92.4-13.8-120-42
		C15.6,301.8,8.4,289.2,0,254.4"/>
	<path d="M310.2,10.2h274.2V99H501v258H393.6V99h-83.4V10.2z"/>
	<path d="M625.2,10.2h108v219c0,31.2,20.4,50.4,53.4,50.4c38.4,0,55.2-21,55.2-67.2V10.8H948v209.4c0,48-5.4,71.4-21,93
		c-24.6,33-73.2,51-140.4,51c-103.8,0-161.4-43.2-161.4-120.6L625.2,10.2L625.2,10.2z"/>
	<path d="M1112.4,94.2V273h1.8l6,0.6h8.4c61.2,0,97.8-33.6,97.8-90c0-55.8-34.8-89.4-94.2-89.4
		C1132.2,94.2,1112.4,94.2,1112.4,94.2z M1005,10.2h166.2c43.8,0,76.2,9.6,105,32.4c40.2,30.6,63.6,83.4,63.6,141
		c0,64.2-30,121.2-78.6,150.6c-31.2,19.2-47.4,22.2-105,22.2H1005V10.2L1005,10.2z"/>
	<path d="M1390.8,10.2h106.8c0,0,0,296.1,0,346.8c-70.6,0-106.8,0-106.8,0V10.2z"/>
	<path d="M1740.6,280.2c27-1.2,50.4-16.2,56.4-35.4c3.6-13.8,6-34.8,6-62.4c0-49.8-1.2-57.6-10.8-72.6
		c-11.4-16.8-31.2-27-54-27c-32.4,0-58.2,16.8-64.8,42.6c-3,12.6-4.2,29.4-4.2,49.8c0,48,2.4,65.4,12,79.8
		c10.8,16.2,31.8,25.8,55.8,25.8C1738.2,280.8,1739.4,280.2,1740.6,280.2 M1738.8,0C1847.4,0,1920,72,1920,180
		c0,75-28.2,129-81.6,158.4c-30,16.2-66,25.2-102,25.2c-74.4,0-138-36-164.4-92.4c-12-27-18.6-58.2-18.6-92.4
		c0-58.2,15.6-96.6,51.6-130.8C1639.2,15.6,1682.4,0,1738.8,0"/>
	</g>

</svg>
