<svg id="logo-frame" xmlns="http://www.w3.org/2000/svg" x="0px" y="0px" width="100%" height="100%">

	<defs>
		<clipPath id="large-logo" clipPathUnits="userSpaceOnUse">
				<path d="M1920,944.8l-67.4-124.7l-47-58.3l94.9-110.1l-34.5-99.3c0.1-0.1,0.2-0.2,0.3-0.3
		c0,0,0,0,0.1-0.1c0.9-0.8,1.8-1.5,2.6-2.3c0.1-0.1,0.3-0.3,0.4-0.4c0.3-0.3,0.6-0.5,0.9-0.8c0.4-0.4,0.8-0.8,1.2-1.2
		c0.3-0.3,0.6-0.6,1-1c0.2-0.2,0.4-0.3,0.5-0.5c0.1-0.1,0.2-0.3,0.4-0.4c0.2-0.2,0.4-0.4,0.6-0.6c0.6-0.7,1.3-1.3,1.9-2
		c0.1-0.1,0.3-0.3,0.4-0.4c0,0,0.1-0.1,0.1-0.1c0.7-0.8,1.4-1.6,2.1-2.3c0.2-0.2,0.3-0.4,0.5-0.6c0.2-0.3,0.5-0.5,0.7-0.8
		c0.3-0.3,0.6-0.7,0.9-1c0.5-0.5,0.9-1.1,1.4-1.7c0.1-0.2,0.3-0.4,0.5-0.6c0.1-0.1,0.1-0.1,0.2-0.2c0.7-0.8,1.3-1.7,1.9-2.5
		c0.1-0.2,0.2-0.3,0.4-0.5c0.2-0.3,0.4-0.5,0.6-0.8c0.3-0.4,0.6-0.8,0.9-1.2c0.4-0.5,0.8-1.1,1.1-1.6c0.1-0.2,0.3-0.4,0.4-0.6
		c0.1-0.1,0.1-0.2,0.2-0.3c0.6-0.8,1.1-1.7,1.7-2.6c0.1-0.2,0.2-0.4,0.3-0.5c0.2-0.3,0.3-0.5,0.5-0.8c0.3-0.4,0.5-0.8,0.8-1.3
		c0.3-0.6,0.7-1.1,1-1.7c0.1-0.2,0.3-0.5,0.4-0.7c0.1-0.1,0.1-0.2,0.2-0.3c0.5-0.9,1-1.9,1.6-2.8c0.1-0.2,0.2-0.3,0.2-0.5
		c0.1-0.1,0.1-0.2,0.2-0.3c0.1-0.2,0.2-0.4,0.3-0.6c0.3-0.5,0.5-1,0.8-1.5c0.3-0.5,0.5-1,0.8-1.5c0.1-0.3,0.3-0.6,0.4-0.9
		c0.1-0.2,0.2-0.3,0.2-0.5c0.5-1.1,1-2.1,1.5-3.2c0-0.1,0.1-0.1,0.1-0.2c0.1-0.2,0.2-0.4,0.3-0.7c0.3-0.8,0.7-1.6,1-2.4
		c0.1-0.3,0.2-0.6,0.4-0.9c0.2-0.4,0.3-0.8,0.5-1.2c0.2-0.4,0.3-0.8,0.5-1.2c0.2-0.6,0.5-1.3,0.7-1.9c0.1-0.3,0.3-0.7,0.4-1
		c0.1-0.1,0.1-0.3,0.2-0.4c0.4-1.1,0.8-2.2,1.1-3.3c0.1-0.2,0.1-0.4,0.2-0.6c0,0,0,0,0-0.1c0.4-1.3,0.9-2.7,1.3-4
		c0-0.1,0.1-0.2,0.1-0.3c0.1-0.5,0.3-0.9,0.4-1.4c0.2-0.8,0.5-1.6,0.7-2.5c0.1-0.2,0.1-0.4,0.2-0.7c0.1-0.6,0.3-1.1,0.4-1.7
		c0.2-0.6,0.3-1.2,0.5-1.8c0.1-0.3,0.1-0.6,0.2-0.9c0.1-0.3,0.2-0.7,0.2-1c0.2-0.7,0.3-1.5,0.5-2.2c0.1-0.5,0.2-1,0.3-1.5
		c0-0.2,0.1-0.4,0.1-0.6c0.2-1.2,0.4-2.4,0.7-3.6c0.1-0.5,0.2-1,0.3-1.5c0-0.1,0-0.2,0-0.3c0.3-1.8,0.7-3.6,0.9-5.5c0,0,0.1,0,0.1,0
		c0,0,0,0,0,0c0-1.9,0.3-3.7,0.5-5.6c0-0.1,0-0.2,0-0.3c0.1-0.9,0.1-1.8,0.2-2.6c0.1-0.8,0.1-1.5,0.2-2.3c0-0.1,0-0.2,0-0.3
		c0.1-1,0.1-2,0.2-2.9c0-0.7,0.1-1.4,0.1-2.2c0-0.1,0-0.1,0-0.2c0.1-1.1,0.1-2.3,0.1-3.4c0-0.6,0-1.2,0.1-1.8c0,0,0-0.1,0-0.1
		c0-1.8,0-3.6,0-5.4c0-1.4,0-2.9-0.1-4.3c0-0.2,0-0.3,0-0.5c0-0.5,0-1-0.1-1.5c0-0.8-0.1-1.5-0.1-2.3c0-0.3,0-0.6-0.1-0.9
		c0-0.2,0-0.5,0-0.7c0-0.3-0.1-0.7-0.1-1c0-0.5-0.1-1-0.1-1.5c0-0.5-0.1-0.9-0.1-1.4c0-0.6-0.1-1.2-0.2-1.7c0-0.3-0.1-0.7-0.1-1
		c0-0.4-0.1-0.9-0.2-1.3c-0.1-0.6-0.1-1.3-0.2-1.9c-0.1-0.5-0.1-0.9-0.2-1.4c0-0.4-0.1-0.7-0.1-1.1c0-0.3-0.1-0.7-0.2-1
		c-0.2-1.1-0.3-2.2-0.5-3.3c-0.1-0.4-0.1-0.9-0.2-1.3c0-0.2-0.1-0.5-0.1-0.7c0-0.3-0.1-0.6-0.1-0.8c-0.2-0.9-0.3-1.7-0.5-2.6
		c-0.1-0.4-0.2-0.9-0.2-1.3c0-0.1-0.1-0.2-0.1-0.3c-0.4-1.7-0.7-3.3-1.1-5c0,0,0,0,0,0l-68.4-274.5c0,0,0,0.1,0,0.1
		c-2.2-9-5.1-17.6-8.6-25.8c-9.3-21.9-22.8-40.6-39.9-55.7c-17-15-37.6-26.4-61.1-33.7c-23.4-7.2-49.7-10.3-78.3-8.7
		c-14.7,0.8-28.5,2.5-41.6,5.2c-13.1,2.7-25.4,6.3-37,10.9c-11.6,4.6-22.5,10.1-32.7,16.6c-10.2,6.5-19.8,14-28.7,22.5
		c-9.5,9-17.7,18.3-24.6,27.9c-6.9,9.7-12.6,19.8-17.1,30.5c-0.9,2.2-1.8,4.4-2.6,6.6L1414,23.1l-115,6.2l-4.5,162.5l-70-96.4
		c0.7,0.9,1.3,1.8,1.9,2.7c0,0,0,0.1,0.1,0.1c-1.7-2.5-3.5-4.9-5.3-7.2c-7.5-9.5-16.1-17.7-25.7-24.6c-6.8-5.1-13.9-9.4-21.4-13
		c-7.5-3.6-15.3-6.4-23.7-8.5c-8.3-2.1-17.2-3.5-26.6-4.3c-9.4-0.7-19.5-0.8-30.2-0.2l-159.9,8.7l-2.2,45.4L890.9,52l-106,5.7
		l-4.4,79.3L697.1,62l-104.5,5.7l-1.5,22l-25.1-20.6L322.7,82.2l-4,49.3l-49.9-33.7c0.6,0.4,1.1,0.8,1.7,1.2c0,0,0,0,0,0
		c-8.4-6-18.2-10.4-29.6-13.3c-13-3.2-28-4.4-44.9-3.4c-18,1-34.8,4.5-49.9,10.1c-15.1,5.6-28.7,13.4-40.1,22.9
		c-11.5,9.5-20.9,20.8-27.8,33.4c-6.9,12.6-11.3,26.6-12.7,41.6c-0.6,6.8-0.5,13.5,0.3,19.9c0.8,6.4,2.4,12.6,4.6,18.4
		c2.2,5.8,5.1,11.3,8.7,16.3c3.6,5,7.8,9.6,12.6,13.6c3.5,2.7,7.1,5.3,10.8,7.6c3.2,2,6.4,3.9,9.7,5.6c-0.3-0.2-0.6-0.3-0.9-0.5l0,0
		c0,0,0,0,0,0l87.8,47.3c-0.4,1.3-0.9,2.6-1.5,3.9c-0.9,1.9-2.1,3.6-3.6,5.1l-41.4-22.1l-106.1,3.9l0.7,5.7c1,7.6,2,14.1,3.3,19.8
		c1.2,5.7,2.7,10.6,4.5,15.1c1.8,4.5,3.9,8.6,6.6,12.6c2.6,4,5.8,8,9.5,12.2c5.2,6.3,11.2,11.7,17.9,16.4c4.2,2.9,8.7,5.5,13.5,7.8
		c0,0,0,0-0.1,0h0c0,0,0,0,0,0l174.1,82.5l-75.6,1.7L181,507.9l-52.7-23.1L30.8,487L0,813.8l437.3,113.1l81,1l1.3-18.8l69.6,19.7
		l101.3,1.2l-4.4-6.5l22.1,6.7l84,1l1.4-26.2l79.4,27.2l83.5,1l0.4-8.5l23.4,8.7l91.7,1.1l14.1-43.1l98.9,44.5l95.9,1.2l-17.3-61.4
		c30.5,17,60.9,34,91.4,51c5.6,3.1,11.6,6,17.9,8.4c6.3,2.4,12.8,4.5,19.7,6.2c6.9,1.7,14,3,21.4,3.9c7.4,0.9,15.1,1.4,23,1.5
		c2,0,3.9,0,5.9,0c0.5,0,0.9,0,1.4,0c1.9,0,3.8-0.1,5.7-0.2c0.1,0,0.2,0,0.4,0c1.8-0.1,3.6-0.2,5.4-0.4c0.5,0,0.9-0.1,1.4-0.1
		c1.9-0.2,3.7-0.3,5.6-0.5c0,0,0.1,0,0.1,0c0.2,0,0.3,0,0.5-0.1c1.7-0.2,3.4-0.4,5-0.7c0.4-0.1,0.9-0.1,1.3-0.2
		c0.3-0.1,0.7-0.1,1-0.2c1.4-0.2,2.9-0.5,4.3-0.7c0.3,0,0.5-0.1,0.8-0.1c1.6-0.3,3.1-0.6,4.7-0.9c0.4-0.1,0.8-0.2,1.2-0.3
		c1.7-0.4,3.4-0.8,5.1-1.2c0.1,0,0.2,0,0.2-0.1c0.2-0.1,0.4-0.1,0.6-0.2c1.5-0.4,2.9-0.8,4.4-1.2c0.4-0.1,0.7-0.2,1.1-0.3
		c1.6-0.5,3.3-1,4.9-1.5c0.3-0.1,0.6-0.2,0.9-0.3c0.7-0.2,1.5-0.5,2.2-0.7c0.7-0.2,1.3-0.5,1.9-0.7c0.3-0.1,0.7-0.2,1-0.4
		c1.6-0.6,3.1-1.2,4.6-1.8c0.1,0,0.2-0.1,0.3-0.1c0.2-0.1,0.4-0.2,0.6-0.3c1.3-0.6,2.6-1.1,3.9-1.7c0.3-0.1,0.6-0.3,0.9-0.4
		c1.5-0.7,2.9-1.4,4.3-2.2c0.3-0.2,0.6-0.3,0.9-0.5c1.2-0.7,2.5-1.3,3.6-2c0.2-0.1,0.5-0.3,0.7-0.4c1.1-0.7,2.3-1.3,3.4-2
		c0.2-0.1,0.4-0.3,0.6-0.4c0.1-0.1,0.2-0.1,0.4-0.2c0.3-0.2,0.5-0.4,0.8-0.6c0.6-0.4,1.2-0.8,1.8-1.2c0.2-0.1,0.4-0.3,0.6-0.4
		c0.2-0.2,0.5-0.3,0.7-0.5c0.6-0.4,1.1-0.8,1.7-1.2c0.2-0.2,0.5-0.3,0.7-0.5c0.2-0.1,0.4-0.3,0.6-0.4c0.6-0.4,1.1-0.9,1.7-1.3
		c0.3-0.2,0.5-0.4,0.8-0.6c0.1-0.1,0.3-0.2,0.4-0.3c0.6-0.5,1.1-0.9,1.7-1.4c0.3-0.2,0.5-0.4,0.8-0.7c0.1-0.1,0.2-0.2,0.3-0.3
		c0.3-0.2,0.5-0.5,0.8-0.7c0.3-0.3,0.6-0.5,0.9-0.8c0.2-0.2,0.4-0.4,0.6-0.6c0.3-0.3,0.5-0.5,0.8-0.8c0.2-0.2,0.4-0.3,0.5-0.5
		c0.3-0.3,0.6-0.6,1-1c0.2-0.2,0.5-0.5,0.7-0.7c0.1-0.1,0.2-0.2,0.3-0.3c0.6-0.6,1.2-1.3,1.9-1.9c0.3-0.3,0.6-0.6,0.8-0.9
		c0.3-0.3,0.5-0.6,0.8-0.9c0,0,0,0,0,0c0,0,0,0,0,0c0.3-0.3,0.5-0.5,0.7-0.8c0.3-0.3,0.5-0.6,0.8-0.8c0,0,0,0,0,0
		c0.7-0.7,1.3-1.5,2-2.2c0.1-0.1,0.2-0.2,0.2-0.3c0.1-0.1,0.2-0.2,0.3-0.3c0.6-0.6,1.1-1.3,1.6-1.9c0.1-0.1,0.2-0.2,0.2-0.3
		c0,0,0-0.1,0.1-0.1c0.6-0.7,1.2-1.4,1.8-2.1c0.1-0.1,0.1-0.1,0.2-0.2c0.1-0.1,0.2-0.2,0.2-0.3c0.4-0.5,0.7-0.9,1.1-1.4l58,46.7
		l97.1,1.2l0.5-101.2l84.1,102.2L1920,944.8z"/>
		</clipPath>
	</defs>
	
	<rect id="logo-rect" fill="url(#logo-pattern)" x="0%" y="0" width="100%" height="100%" />
	
	<g id='fillins'>
		<path d="M195.3,91.5c15.3-0.8,28.8,0.1,40.6,2.9c11.8,2.8,22,7.4,30.4,13.8c8.4,6.5,15.2,14.8,20.2,25
		c5.1,10.2,8.4,22.4,10.1,36.4l-83.5,4c-0.3-4.5-1.1-8.5-2.4-12c-1.3-3.4-3.1-6.3-5.3-8.6c-2.2-2.3-4.9-4-8-5.1
		c-3.1-1.1-6.6-1.6-10.5-1.4c-4,0.2-7.7,1.1-11,2.5c-3.3,1.4-6.3,3.5-8.9,5.9c-2.5,2.5-4.6,5.5-6.2,8.8c-1.5,3.4-2.5,7.1-2.9,11.2
		c-0.5,5.5,0.3,10.2,2.2,14.1c1.9,3.9,5,7.1,9.1,9.7c4.1,2.7,9.4,4.8,15.5,6.6c6.2,1.8,13.4,3.3,21.4,4.6c9.4,1.6,17.3,3.1,24.1,4.7
		c6.8,1.6,12.5,3.2,17.6,4.9c5.1,1.8,9.6,3.7,13.9,5.9c4.3,2.2,8.4,4.6,12.8,7.5c4.7,3.1,8.9,7,12.4,11.6c3.6,4.6,6.6,9.8,8.9,15.5
		c2.3,5.7,4,12,4.9,18.5c0.9,6.6,1.2,13.5,0.6,20.6c-1.2,14.9-5.3,28.6-12,40.8c-6.7,12.2-16,22.9-27.4,31.8
		c-11.4,8.9-25.1,16-40.5,21c-15.4,5-32.5,7.9-51.1,8.5c-10.6,0.3-20.5-0.2-29.7-1.4c-9.2-1.2-17.7-3.3-25.4-6.1
		c-7.8-2.8-14.8-6.3-21.1-10.7c-6.3-4.3-11.9-9.4-16.8-15.2c-3.1-3.5-5.7-6.7-8-10c-2.3-3.3-4.2-6.6-5.8-10.3
		c-1.6-3.7-3-7.8-4.2-12.6c-1.2-4.8-2.2-10.3-3.2-16.9l88-3.2c0.6,5,1.6,9.4,3.2,13.1c1.6,3.8,3.6,7,6.1,9.5
		c2.5,2.5,5.5,4.4,8.9,5.7c3.4,1.2,7.3,1.8,11.5,1.6c4.7-0.2,9.1-1.1,13.1-2.7c4-1.6,7.6-3.8,10.6-6.6c3-2.8,5.6-6.1,7.4-9.9
		c1.8-3.8,3-7.9,3.4-12.4c0.4-4.8-0.1-8.8-1.4-12.2c-1.3-3.4-3.5-6.2-6.5-8.6c-3-2.4-6.8-4.3-11.3-6.1c-4.5-1.7-9.8-3.2-15.8-4.6
		c-0.3-0.1-0.8-0.2-1.2-0.3c-0.5-0.1-1-0.2-1.6-0.4c-0.6-0.1-1.2-0.3-1.9-0.5c-0.7-0.2-1.4-0.4-2.2-0.6c-0.5-0.1-1.1-0.3-1.6-0.4
		c-0.6-0.1-1.1-0.3-1.8-0.5c-0.6-0.2-1.2-0.3-1.9-0.5c-0.6-0.2-1.3-0.3-2-0.5c-0.7-0.2-1.4-0.4-2.1-0.6c-0.7-0.2-1.3-0.4-2-0.5
		c-0.7-0.2-1.3-0.3-1.9-0.5c-0.6-0.2-1.2-0.3-1.9-0.5c-1.1-0.3-2.2-0.6-3.2-0.9c-1-0.3-2-0.5-2.9-0.8c-0.9-0.3-1.8-0.5-2.6-0.8
		c-0.8-0.3-1.5-0.5-2.1-0.8c-3.9-1.1-7.7-2.4-11.4-3.8c-3.7-1.5-7.4-3.1-11-5c-3.6-1.8-7.1-3.9-10.6-6.1c-3.5-2.2-6.9-4.6-10.3-7.2
		c-4.3-3.6-8-7.6-11.2-12.1c-3.2-4.5-5.8-9.3-7.7-14.5c-2-5.2-3.4-10.7-4.1-16.4c-0.7-5.7-0.8-11.7-0.3-17.8
		c1.3-13.7,5.3-26.4,11.7-37.9c6.4-11.5,15.1-21.8,25.8-30.4c10.7-8.7,23.2-15.8,37.3-20.9C163,95.6,178.6,92.4,195.3,91.5z"/>
	<path d="M556.4,78.9l-4.8,70.5l-72.5,3.5l-16.9,234.9l-84.2,2.5L395.9,157l-70.7,3.4l5.6-69.4L556.4,78.9z"/>
	<path d="M296.5,490.6L178.6,629.2l112,175.5l-100.5-0.3l-86.2-149.3l-13.4,149L9.6,804l28.9-307.8l80.2-1.8
		l-10.6,118.7l96.1-120.5L296.5,490.6z"/>
	<path d="M687.2,71.9l-11.9,195.7c-0.5,7.9,0.3,15.1,2.4,21.3c2,6.2,5.2,11.6,9.5,15.9c4.3,4.3,9.7,7.6,16,9.7
		c6.4,2.1,13.7,3.1,21.9,2.8c9.3-0.3,17.5-1.9,24.6-4.9c7.1-3,13-7.3,17.9-13.1c4.8-5.7,8.6-12.9,11.3-21.5c2.7-8.6,4.3-18.6,5-30.1
		l10-181l87-4.6l-9.5,189.5c-0.5,10.9-1.3,20.5-2.4,28.9c-1.1,8.5-2.5,15.9-4.2,22.6c-1.8,6.7-4,12.6-6.6,18.1
		c-2.7,5.5-5.8,10.6-9.5,15.6c-5.9,7.7-13.1,14.6-21.5,20.6c-8.4,6-18,11.1-28.8,15.3c-10.7,4.2-22.6,7.5-35.5,9.8
		c-12.9,2.3-26.8,3.7-41.6,4.2c-22.9,0.7-43-1.1-60.1-5.3c-17.1-4.2-31.4-10.7-42.6-19.4c-11.2-8.7-19.5-19.6-24.7-32.7
		c-5.2-13-7.2-28.1-6.1-45.3l13.6-207.6L687.2,71.9z"/>
	<path d="M550.5,669.3l12.2-184.7l84.4-1.9l-19.9,322.8l-88.4-0.2L438.4,617.5l-13.5,187.6l-84.7-0.2l24.2-315.8
		l85.5-1.9L550.5,669.3z"/>
	<path d="M1189,74.5c9,6.4,17.1,14.2,24.1,23.1c7,8.9,13,19,17.7,29.9c4.8,10.9,8.4,22.8,10.7,35.2
		c2.3,12.5,3.3,25.6,2.9,39.1c-0.4,14.8-2.7,29.4-6.5,43.4c-3.8,14-9.2,27.4-16,39.8c-6.8,12.4-15,23.9-24.4,34.1
		c-9.4,10.2-20,19.1-31.7,26.3c-7.3,4.6-13.8,8.3-20.2,11.3c-6.4,3-12.7,5.2-19.9,6.9c-7.1,1.7-15.1,2.9-24.7,3.7
		c-9.6,0.8-20.8,1.4-34.6,1.8l-138.4,4.1l14.8-315.1l150.3-8c10.2-0.5,19.6-0.5,28.5,0.2c8.9,0.7,17.2,2,25,4c7.8,2,15.2,4.6,22.2,8
		C1176,65.7,1182.6,69.8,1189,74.5z M1042.9,300.6c15.3-0.5,29.3-3.2,41.5-7.7c12.3-4.5,22.9-10.9,31.7-19.1
		c8.8-8.1,15.7-18,20.5-29.4c4.8-11.4,7.6-24.3,8.1-38.5c0.5-14.1-1.3-26.7-5.1-37.5c-3.9-10.8-9.8-20-17.7-27.3
		c-7.8-7.3-17.6-12.7-29.1-16.2c-11.4-3.4-24.6-4.9-39.3-4.2l-23.5,1.1l-7.5,178.8l5-0.2l6.9,0.3L1042.9,300.6"/>
	<path d="M798.1,478.9l141-3.1l87.9,330.9l-98.6-0.3l-14-58l-122.2,0.2L772.7,806l-93.2-0.2L798.1,478.9z
		 M811.9,693.4l89.1-0.5l-36.1-158.9L811.9,693.4"/>
	<path d="M1403.4,33.7l-7.1,326.3l-96.2,2.9l8.8-324.1L1403.4,33.7z"/>
	<path d="M1233.8,742c8.4,0,16.2-1.1,23.4-3.2c7.2-2.1,13.6-5.2,19.3-9.3c5.7-4.1,10.7-9.1,14.7-15
		c4.1-5.9,7.3-12.7,9.6-20.3l107.6-0.6c-2.4,9.5-4.7,17.6-7.1,24.7c-2.4,7.1-5,13.3-7.9,19c-2.9,5.7-6.1,10.8-10,15.8
		c-3.8,5.1-8.2,10-13.3,15.4c-7.2,7.8-15.6,14.7-25.1,20.7c-9.5,6-20,11.2-31.4,15.3c-11.4,4.1-23.6,7.3-36.5,9.4
		c-12.8,2.1-26.3,3.2-40.2,3.1c-14,0-27.3-1.2-40-3.3c-12.6-2.1-24.5-5.3-35.7-9.5c-11.1-4.2-21.5-9.3-31-15.4
		c-9.5-6.1-18.2-13.2-26-21.1c-7.8-8-14.5-16.8-20.3-26.4c-5.7-9.6-10.5-19.9-14.2-30.9c-3.7-11-6.3-22.6-7.9-34.9
		c-1.6-12.2-2.1-25.1-1.6-38.4c1.1-26.8,6.3-51.1,15.2-72.4c8.9-21.3,21.6-39.8,37.6-55c16-15.2,35.3-27.2,57.6-35.5
		c22.3-8.3,47.7-13.1,75.7-13.7c23.6-0.5,45,1.6,63.9,6.4c19,4.8,35.5,12.1,49.4,22c13.9,9.9,25.2,22.3,33.7,37.1
		c8.5,14.9,14.1,32.1,16.8,51.7l-105.9,1.5c-2.4-8.1-5.5-15.1-9.4-21.1c-3.9-6-8.6-11-14.1-15c-5.5-4-11.7-6.9-18.7-8.8
		c-7-1.9-14.7-2.8-23.2-2.6c-11.3,0.2-21.5,2.1-30.5,5.6c-8.9,3.5-16.6,8.5-23,15.1c-6.3,6.5-11.3,14.5-14.9,23.9
		c-3.6,9.4-5.7,20.2-6.3,32.2l-1.2,34.2c-0.4,12.1-0.6,22.3-0.3,30.9c0.3,8.7,1,15.8,2.4,22c1.4,6.2,3.4,11.3,6.4,16
		c2.9,4.7,6.7,8.8,11.5,12.9c3.4,2.9,7,5.4,10.8,7.6c3.8,2.2,7.9,4,12.2,5.5c4.3,1.5,8.7,2.6,13.3,3.3
		C1224.1,741.7,1228.9,742,1233.8,742z"/>
	<path d="M1651.4,10.5c27-1.5,51.8,1.5,73.9,8.3c22.2,6.8,41.6,17.6,57.7,31.8c16.1,14.2,28.9,32,37.6,52.6
		c8.8,20.7,13.5,44.4,13.5,70.4c0,18.1-1.8,35-5.3,50.8c-3.6,15.8-8.9,30.4-15.9,43.7c-7,13.3-15.8,25.3-26.2,35.8
		c-10.4,10.5-22.5,19.7-36.1,27.3c-7.8,4.2-15.9,8-24.3,11.4c-8.4,3.3-17.1,6.2-26,8.6c-8.9,2.4-17.9,4.2-27,5.6
		c-9.1,1.3-18.2,2.2-27.3,2.4c-18.6,0.5-36.6-1.1-53.5-4.8c-16.8-3.6-32.5-9.2-46.7-16.5c-14.1-7.3-26.7-16.3-37.3-26.7
		c-10.6-10.4-19.2-22.3-25.4-35.5c-2.9-6.6-5.5-13.3-7.6-20.3c-2.2-7-3.9-14.1-5.3-21.4c-1.4-7.3-2.4-14.8-3-22.5
		c-0.6-7.7-0.9-15.5-0.7-23.5c0.3-13.7,1.4-26.3,3.5-38c2.1-11.6,5.2-22.4,9.5-32.5c4.2-10.1,9.5-19.6,16.1-28.6
		c6.5-9.1,14.3-17.8,23.3-26.4c8.4-8,17.5-15,27.1-21.1c9.7-6.1,20-11.3,31-15.6c11-4.3,22.7-7.7,35.1-10.2
		C1624.3,12.9,1637.4,11.3,1651.4,10.5z M1715.3,244.4c1.1-3.9,2-8.2,2.8-12.9c0.8-4.7,1.5-9.7,2.1-15.1c0.6-5.4,1-11,1.3-17
		c0.3-6,0.5-12.2,0.5-18.7c0.1-12.6,0-22.5-0.2-30.6c-0.3-8.1-0.7-14.3-1.6-19.5c-0.8-5.1-2-9.2-3.6-12.9c-1.6-3.7-3.7-7.2-6.4-11
		c-3.2-4.4-7-8.2-11.3-11.6c-4.3-3.3-9.1-6.1-14.2-8.3c-5.2-2.2-10.7-3.8-16.5-4.8c-5.8-1-11.8-1.4-18-1.1c-9,0.4-17.6,2-25.4,4.5
		c-7.8,2.5-15,5.9-21.2,10.2c-6.3,4.2-11.6,9.3-15.9,15.1c-4.3,5.8-7.5,12.2-9.4,19.2c-0.8,3-1.5,6.3-2.1,9.9
		c-0.6,3.6-1.1,7.4-1.5,11.6c-0.4,4.2-0.7,8.6-1,13.4c-0.2,4.8-0.4,9.8-0.5,15.3c-0.2,12.2-0.1,22.5,0.2,31.2
		c0.3,8.7,0.9,16,1.8,22.1c0.9,6.2,2.2,11.2,3.9,15.7c1.7,4.5,3.8,8.3,6.3,12c3,4.3,6.6,8,10.9,11.3c4.3,3.3,9.1,6.1,14.4,8.3
		c5.3,2.2,11.1,3.9,17.2,4.9c6.1,1,12.6,1.5,19.4,1.2c0.3,0,0.6,0,0.9-0.1s0.6-0.1,0.8-0.1c0.3-0.1,0.5-0.1,0.8-0.2s0.5-0.1,0.7-0.2
		l0.7-0.1c7.6-0.6,15-2.1,21.9-4.4c6.9-2.3,13.3-5.3,18.9-9c5.7-3.7,10.6-7.9,14.6-12.7C1710.4,255.2,1713.4,249.9,1715.3,244.4"/>
	<path d="M1670.9,612.3l158,196.5l-126.2-0.3l-122.9-167l-2,166.7l-101.7-0.3l5.9-344.1l99.3-2.2l-1.6,132.3
		l108.3-134.7l116.8-2.6L1670.9,612.3z"/>
	</g>

</svg>
