 <svg  id="toc-btn"
      class="btn" 
      xmlns="http://www.w3.org/2000/svg" 
      xmlns:xlink="http://www.w3.org/1999/xlink" 
      viewBox="0 0 48 48"
      x="0px" 
      y="0px"
      width="48px"
      height="48px">

  <g id="toc-closed" class="st0">
    <path d="M0 0v48h48V0H0zm38.2 35.4l-2.8 2.8L24 26.8 12.7 38.1l-2.8-2.8L21.2 24 9.9 12.7l2.8-2.8L24 21.2 35.4 9.8l2.8 2.8L26.8 24l11.4 11.4z"/>
  </g>
  <g id="toc-open">
    <path d="M0 0v48h48V0H0zm28 36h-8v-4h8v4zm8-10H12v-4h24v4zm6-10H6v-4h36v4z"/>
  </g>
</svg>