<!-- <svg id="logo" xmlns="http://www.w3.org/2000/svg" x="0px" y="0px" viewBox="0 0 400 168.7"> -->
<svg id="logo-frame" xmlns="http://www.w3.org/2000/svg" x="0px" y="0px" width="100%" height="100%">
<!--    _           _ _       _                _
     __| |_ _  _ __| (_)___  | |___ _  __ _ __| |__
    (_-<  _| || / _` | / _ \ | / / ' \/ _` / _| / /
    /__/\__|\_,_\__,_|_\___/ |_\_\_||_\__,_\__|_\_\ --> 

  <defs>
    <clipPath id="twoline-logo" clipPathUnits="userSpaceOnUse">
      <path d="M0,799.8h106.8V650.4L216,799.8h129.6L194.4,607.2L324,453.6H201.6l-94.2,120v-120H0V799.8z M386.4,799.8h106.2V615.6
        l118.8,184.2h105V453.6H612V636L492.6,453.6H386.4V799.8z M760.8,799.8h111l17.4-58.2h121.2l17.4,58.2h112.8L1030.8,453H872.4
        L760.8,799.8z M951,535.8L990.6,675h-80.4L951,535.8z M1344.6,444.6c-116.4,0-189,69-189,180.6c0,112.8,74.4,184.2,190.2,184.2
        c55.8,0,105-17.4,133.8-49.2c21-22.2,28.8-37.8,38.4-81.6h-116.4c-6.6,30-28.2,46.8-61.2,46.8c-18,0-34.8-5.4-48-16.2
        c-17.4-14.4-21-27.6-21-77.4v-34.2c0.6-45,24.6-70.8,67.8-70.8c33,0,54,16.2,63,48.6h114.6C1506.6,491.4,1444.2,444.6,1344.6,444.6
         M1574.4,799.8h106.8V650.4l109.2,149.4H1920l-151.2-192.6L1898.4,453h-123.6l-94.2,120V453h-106.8v346.8H1574.4z"/>
      <path d="M0,254.4h118.2c3.6,22.8,15.6,34.8,34.8,34.8s33-11.4,33-28.8c0-16.2-10.2-24-41.4-31.8c-3-0.6-9-2.4-18-4.8
        c-10.2-3-18.6-4.8-24-7.2c-21-6-40.2-16.2-56.4-27.6c-24-18-37.8-45.6-37.8-75C8.4,48,67.8,2.4,151.8,2.4
        C231.6,2.4,276,37.2,288.6,108h-111c-1.8-20.4-12-32.4-30-32.4c-16.2,0-27,10.2-27,25.8c0,19.2,15,28.8,58.2,37.2
        c45.6,9,63,15.6,86.4,30c25.8,16.2,40.8,46.8,40.8,79.8c0,69.6-59.4,114-151.2,114c-52.2,0-92.4-13.8-120-42
        C15.6,301.8,8.4,289.2,0,254.4"/>
      <path d="M310.2,10.2h274.2V99H501v258H393.6V99h-83.4V10.2z"/>
      <path d="M625.2,10.2h108v219c0,31.2,20.4,50.4,53.4,50.4c38.4,0,55.2-21,55.2-67.2V10.8H948v209.4c0,48-5.4,71.4-21,93
        c-24.6,33-73.2,51-140.4,51c-103.8,0-161.4-43.2-161.4-120.6L625.2,10.2L625.2,10.2z"/>
      <path d="M1112.4,94.2V273h1.8l6,0.6h8.4c61.2,0,97.8-33.6,97.8-90c0-55.8-34.8-89.4-94.2-89.4C1132.2,94.2,1112.4,94.2,1112.4,94.2
        z M1005,10.2h166.2c43.8,0,76.2,9.6,105,32.4c40.2,30.6,63.6,83.4,63.6,141c0,64.2-30,121.2-78.6,150.6
        c-31.2,19.2-47.4,22.2-105,22.2H1005V10.2L1005,10.2z"/>
      <path d="M1390.8,10.2h106.8c0,0,0,296.1,0,346.8c-70.6,0-106.8,0-106.8,0V10.2z"/>
      <path d="M1740.6,280.2c27-1.2,50.4-16.2,56.4-35.4c3.6-13.8,6-34.8,6-62.4c0-49.8-1.2-57.6-10.8-72.6c-11.4-16.8-31.2-27-54-27
        c-32.4,0-58.2,16.8-64.8,42.6c-3,12.6-4.2,29.4-4.2,49.8c0,48,2.4,65.4,12,79.8c10.8,16.2,31.8,25.8,55.8,25.8
        C1738.2,280.8,1739.4,280.2,1740.6,280.2 M1738.8,0C1847.4,0,1920,72,1920,180c0,75-28.2,129-81.6,158.4c-30,16.2-66,25.2-102,25.2
        c-74.4,0-138-36-164.4-92.4c-12-27-18.6-58.2-18.6-92.4c0-58.2,15.6-96.6,51.6-130.8C1639.2,15.6,1682.4,0,1738.8,0"/>
    </clipPath>

    <clipPath id="oneline-logo"  clipPathUnits="userSpaceOnUse">
      <path d="M2056.5,357.1h106.8V207.7l109.2,149.4h129.6l-151.2-192.6l129.6-153.6h-122.4l-94.2,120v-120h-107.4V357.1z M2442.9,357.1
        h106.2V172.9l118.8,184.2h105V10.9h-104.4v182.4L2549.1,10.9h-106.2V357.1z M2817.3,357.1h111l17.4-58.2h121.2l17.4,58.2h112.8
        L3087.3,10.3h-158.4L2817.3,357.1z M3007.5,93.1l39.6,139.2h-80.4L3007.5,93.1z M3401.1,1.9c-116.4,0-189,69-189,180.6
        c0,112.8,74.4,184.2,190.2,184.2c55.8,0,105-17.4,133.8-49.2c21-22.2,28.8-37.8,38.4-81.6h-116.4c-6.6,30-28.2,46.8-61.2,46.8
        c-18,0-34.8-5.4-48-16.2c-17.4-14.4-21-27.6-21-77.4v-34.2c0.6-45,24.6-70.8,67.8-70.8c33,0,54,16.2,63,48.6h114.6
        C3563.1,48.7,3500.7,1.9,3401.1,1.9 M3630.9,357.1h106.8V207.7l109.2,149.4h129.6l-151.2-192.6l129.6-154.2h-123.6l-94.2,120v-120
        h-106.8v346.8H3630.9z"/>
      <path d="M0,254.4h118.2c3.6,22.8,15.6,34.8,34.8,34.8s33-11.4,33-28.8c0-16.2-10.2-24-41.4-31.8c-3-0.6-9-2.4-18-4.8
        c-10.2-3-18.6-4.8-24-7.2c-21-6-40.2-16.2-56.4-27.6c-24-18-37.8-45.6-37.8-75C8.4,48,67.8,2.4,151.8,2.4
        C231.6,2.4,276,37.2,288.6,108h-111c-1.8-20.4-12-32.4-30-32.4c-16.2,0-27,10.2-27,25.8c0,19.2,15,28.8,58.2,37.2
        c45.6,9,63,15.6,86.4,30c25.8,16.2,40.8,46.8,40.8,79.8c0,69.6-59.4,114-151.2,114c-52.2,0-92.4-13.8-120-42
        C15.6,301.8,8.4,289.2,0,254.4"/>
      <path d="M310.2,10.2h274.2V99H501v258H393.6V99h-83.4V10.2z"/>
      <path d="M625.2,10.2h108v219c0,31.2,20.4,50.4,53.4,50.4c38.4,0,55.2-21,55.2-67.2V10.8H948v209.4c0,48-5.4,71.4-21,93
        c-24.6,33-73.2,51-140.4,51c-103.8,0-161.4-43.2-161.4-120.6L625.2,10.2L625.2,10.2z"/>
      <path d="M1112.4,94.2V273h1.8l6,0.6h8.4c61.2,0,97.8-33.6,97.8-90c0-55.8-34.8-89.4-94.2-89.4C1132.2,94.2,1112.4,94.2,1112.4,94.2
        z M1005,10.2h166.2c43.8,0,76.2,9.6,105,32.4c40.2,30.6,63.6,83.4,63.6,141c0,64.2-30,121.2-78.6,150.6
        c-31.2,19.2-47.4,22.2-105,22.2H1005V10.2L1005,10.2z"/>
      <path d="M1390.8,10.2h106.8c0,0,0,296.1,0,346.8c-70.6,0-106.8,0-106.8,0V10.2z"/>
      <path d="M1740.6,280.2c27-1.2,50.4-16.2,56.4-35.4c3.6-13.8,6-34.8,6-62.4c0-49.8-1.2-57.6-10.8-72.6c-11.4-16.8-31.2-27-54-27
        c-32.4,0-58.2,16.8-64.8,42.6c-3,12.6-4.2,29.4-4.2,49.8c0,48,2.4,65.4,12,79.8c10.8,16.2,31.8,25.8,55.8,25.8
        C1738.2,280.8,1739.4,280.2,1740.6,280.2 M1738.8,0C1847.4,0,1920,72,1920,180c0,75-28.2,129-81.6,158.4c-30,16.2-66,25.2-102,25.2
        c-74.4,0-138-36-164.4-92.4c-12-27-18.6-58.2-18.6-92.4c0-58.2,15.6-96.6,51.6-130.8C1639.2,15.6,1682.4,0,1738.8,0"/>
        <text id="logo-sub" x="16" y="136" style="font-size:92px;"></text>
    </clipPath>
  </defs>

  <!-- <rect id="logo-rect" clip-path="url(#logo)" fill="url(#logo-pattern)" x="0%" y="0" width="100%" height="100%" /> -->
  <rect id="logo-rect" fill="url(#logo-pattern)" x="0%" y="0" width="100%" height="100%" />
  
</svg>
