<!-- <svg id="logo" xmlns="http://www.w3.org/2000/svg" x="0px" y="0px" viewBox="0 0 400 168.7"> -->
<svg id="logo" xmlns="http://www.w3.org/2000/svg" x="0px" y="0px" width="100%" height="100%">
  <defs>
    <clipPath id="logo-clip">
      <path d="M315.6,158.7h20.1v-28.1l20.5,28.1h24.4l-28.4-36.2l24.4-29h-23.2l-17.7,22.6V93.5h-20.1V158.7z M272.3,91.8
  c-21.9,0-35.5,13-35.5,34c0,21.2,14,34.7,35.8,34.7c10.5,0,19.7-3.3,25.2-9.3c3.9-4.2,5.4-7.1,7.2-15.3h-21.9
  c-1.2,5.7-5.3,8.8-11.5,8.8c-3.4,0-6.6-1-9-3c-3.3-2.7-4-5.2-4-14.6v-6.4c0.1-8.5,4.6-13.3,12.7-13.3c6.2,0,10.2,3,11.8,9.1h21.6
  C302.8,100.7,291.1,91.8,272.3,91.8 M198.3,109l7.5,26.2h-15.1L198.3,109z M162.5,158.7h20.9l3.3-10.9h22.8l3.3,10.9H234l-20.6-65.2
  h-29.8L162.5,158.7z M92.1,158.7h20v-34.6l22.4,34.6h19.7V93.5h-19.7v34.4l-22.4-34.4h-20V158.7z M19.4,158.7h20.1v-28.1l20.5,28.1
  h24.4l-28.4-36.2l24.4-29H57.3l-17.7,22.6V93.5H19.4V158.7z"/>
<path d="M19.4,56.1h22.2c0.7,4.3,2.9,6.6,6.6,6.6c3.6,0,6.2-2.2,6.2-5.4c0-3-1.9-4.5-7.8-6c-0.6-0.1-1.7-0.5-3.4-0.9
  c-1.9-0.6-3.5-0.9-4.5-1.3c-4-1.1-7.6-3-10.6-5.2c-4.5-3.4-7.1-8.6-7.1-14.1c0-12.4,11.2-21,27-21c15,0,23.4,6.6,25.7,19.9H52.8
  c-0.3-3.8-2.3-6.1-5.6-6.1c-3,0-5.1,1.9-5.1,4.9c0,3.6,2.8,5.4,11,7c8.6,1.7,11.8,2.9,16.3,5.7c4.8,3.1,7.7,8.8,7.7,15
  c0,13.1-11.2,21.5-28.5,21.5c-9.8,0-17.4-2.6-22.6-7.9C22.3,65,21,62.6,19.4,56.1z"/>
<path d="M77.7,10.1h51.6v16.7h-15.7v48.5H93.4V26.8H77.7V10.1z"/>
<path d="M137,10.1h20.3v41.2c0,5.9,3.8,9.5,10,9.5c7.2,0,10.4-4,10.4-12.6v-38h20v39.4c0,9-1,13.4-4,17.5
  c-4.6,6.2-13.8,9.6-26.4,9.6c-19.5,0-30.4-8.1-30.4-22.7V10.1z"/>
<path d="M208.5,10.1h31.3c8.2,0,14.3,1.8,19.8,6.1c7.6,5.8,12,15.7,12,26.5c0,12.1-5.6,22.8-14.8,28.3c-5.9,3.6-8.9,4.2-19.8,4.2
  h-28.4V10.1z M228.7,25.9v33.6h0.3l1.1,0.1c0.6,0,1,0,1.6,0c11.5,0,18.4-6.3,18.4-16.9c0-10.5-6.6-16.8-17.7-16.8
  C231.1,25.9,229.9,25.9,228.7,25.9z"/>
<path d="M281,10.1h20.1v65.2H281V10.1z"/>
<path d="M346.5,8.2c20.4,0,34.1,13.6,34.1,33.9c0,14.1-5.3,24.3-15.3,29.8c-5.7,3.1-12.4,4.7-19.2,4.7c-14,0-26-6.8-30.9-17.4
  c-2.3-5.1-3.5-11-3.5-17.4c0-10.9,2.9-18.2,9.7-24.6C327.8,11.1,335.9,8.2,346.5,8.2z M346.9,60.9c5.1-0.2,9.5-3,10.6-6.7
  c0.7-2.6,1.1-6.6,1.1-11.7c0-9.4-0.2-10.8-2-13.7c-2.2-3.2-5.9-5.1-10.2-5.1c-6.1,0-11,3.2-12.2,8c-0.6,2.4-0.8,5.5-0.8,9.4
  c0,9,0.5,12.3,2.3,15c2,3,6,4.9,10.5,4.9C346.4,61,346.6,60.9,346.9,60.9z"/>
    </clipPath>
  </defs>

  <g id="logo-group">
    <use clip-path="url(#logo-clip)" xmlns:xlink="http://www.w3.org/1999/xlink" xlink:href="#gradients" x="0" y="0" width="100%" height="100%"></use>
  </g>
  <!-- <use xmlns:xlink="http://www.w3.org/1999/xlink" xlink:href="#gradients" x="0" y="0" width="100%" height="100%"></use> -->

<!--    _           _ _       _                _
     __| |_ _  _ __| (_)___  | |___ _  __ _ __| |__
    (_-<  _| || / _` | / _ \ | / / ' \/ _` / _| / /
    /__/\__|\_,_\__,_|_\___/ |_\_\_||_\__,_\__|_\_\ -->
  
</svg>
