<svg id="logo" xmlns="http://www.w3.org/2000/svg" x="0px" y="0px">
  <defs>
    <clipPath id="logo-clip">
      <path d="M328,166.7h22.3v-31.1l22.7,31.1h27l-31.4-40.1l27-32.1h-25.7l-19.6,25.1V94.5H328V166.7z M280.1,92.6
        c-24.2,0-39.3,14.4-39.3,37.6c0,23.5,15.5,38.5,39.7,38.5c11.7,0,21.8-3.7,27.9-10.3c4.3-4.6,5.9-7.9,8-17h-24.2
        c-1.3,6.3-5.8,9.7-12.8,9.7c-3.8,0-7.3-1.1-9.9-3.3c-3.7-3-4.4-5.7-4.4-16.2v-7.1c0.1-9.4,5.1-14.7,14-14.7c6.9,0,11.3,3.4,13.1,10
        h23.9C313.9,102.5,300.9,92.6,280.1,92.6 M198.1,111.6l8.3,29.1h-16.8L198.1,111.6z M158.5,166.7h23.1l3.7-12.1h25.3l3.7,12.1h23.4
        l-22.8-72.2h-33L158.5,166.7z M80.5,166.7h22.1v-38.4l24.9,38.4h21.8V94.5h-21.8v38.1l-24.8-38.1H80.5V166.7z M0,166.7h22.3v-31.1
        L45,166.7h27l-31.4-40.1l27-32.1H41.9l-19.6,25.1V94.5H0V166.7z"/>
      <path d="M0,53.1h24.5c0.8,4.8,3.2,7.3,7.4,7.3c4,0,6.8-2.5,6.8-6c0-3.4-2.1-5-8.6-6.6c-0.6-0.1-1.8-0.5-3.8-1c-2.1-0.6-3.9-1-5-1.4
        C17,44,13,41.9,9.6,39.5c-5-3.8-7.9-9.5-7.9-15.6c0-13.7,12.4-23.2,30-23.2c16.7,0,26,7.3,28.4,22.1H37c-0.3-4.2-2.6-6.7-6.2-6.7
        c-3.4,0-5.6,2.1-5.6,5.4c0,4,3.1,5.9,12.2,7.8c9.5,1.8,13.1,3.2,18.1,6.3c5.3,3.5,8.5,9.7,8.5,16.7C63.9,66.7,51.5,76,32.3,76
        c-10.8,0-19.2-2.9-25-8.8C3.2,63,1.7,60.2,0,53.1z"/>
      <path d="M64.5,2.1h57.2v18.5h-17.4v53.7H82V20.7H64.5V2.1z"/>
      <path d="M130.3,2.1h22.5v45.6c0,6.5,4.2,10.5,11,10.5c8,0,11.6-4.4,11.6-14V2.1h22.2v43.7c0,9.9-1.1,14.8-4.4,19.4
        c-5.1,6.8-15.3,10.6-29.2,10.6c-21.6,0-33.6-9-33.6-25.1V2.1z"/>
      <path d="M209.4,2.1h34.7c9.1,0,15.8,2,21.9,6.7c8.4,6.4,13.3,17.4,13.3,29.3c0,13.4-6.2,25.3-16.4,31.4c-6.5,4-9.8,4.7-22,4.7h-31.5
        V2.1z M231.7,19.6v37.2h0.3l1.2,0.1c0.7,0,1.1,0,1.7,0c12.8,0,20.3-7,20.3-18.7c0-11.7-7.4-18.6-19.6-18.6
        C234.5,19.6,233.2,19.6,231.7,19.6z"/>
      <path d="M289.7,2.1H312v72.2h-22.3V2.1z"/>
      <path d="M362.3,0C384.9,0,400,15,400,37.5c0,15.6-5.8,26.9-17,33c-6.3,3.5-13.7,5.2-21.3,5.2c-15.5,0-28.8-7.6-34.2-19.3
        c-2.6-5.6-3.9-12.2-3.9-19.2c0-12.1,3.2-20.1,10.7-27.2C341.5,3.3,350.5,0,362.3,0z M362.7,58.4c5.6-0.2,10.5-3.3,11.8-7.5
        c0.8-2.9,1.2-7.3,1.2-13c0-10.4-0.2-12-2.2-15.1c-2.5-3.6-6.5-5.6-11.3-5.6c-6.7,0-12.2,3.6-13.5,8.9c-0.6,2.7-0.9,6.1-0.9,10.4
        c0,10,0.5,13.6,2.6,16.6c2.2,3.4,6.6,5.4,11.7,5.4C362.2,58.5,362.4,58.4,362.7,58.4z"/>
    </clipPath>
  </defs>

  <use clip-path="url(#logo-clip)" xmlns:xlink="http://www.w3.org/1999/xlink" xlink:href="#gradients" x="0" y="0" width="100%" height="100%"></use>
<!--    _           _ _       _                _
     __| |_ _  _ __| (_)___  | |___ _  __ _ __| |__
    (_-<  _| || / _` | / _ \ | / / ' \/ _` / _| / /
    /__/\__|\_,_\__,_|_\___/ |_\_\_||_\__,_\__|_\_\ -->
  
</svg>
