<svg  id="menu-icon" 
      x="0" y="0px" 
      width="48px" height="48px"
      viewbox="0 0 48 48"
      fill="#4a4a4a" 
      xmlns="http://www.w3.org/2000/svg" >
  <g id="menu-open">
    <path d="M12,37.4c2.1-2.1,25.5-25.5,25.5-25.5l-1.4-1.4L10.6,36C10.6,36,11.3,36.7,12,37.4z M10.6,12c2.1,2.1,25.5,25.5,25.5,25.5
      l1.4-1.4L12,10.6C12,10.6,11.3,11.3,10.6,12z"/>
  </g>
  <g id="menu-closed">
    <path d="M6,33c3,0,36,0,36,0v-2H6C6,31,6,32,6,33z M6,17c3,0,36,0,36,0v-2H6C6,15,6,16,6,17z"/>
  </g>
</svg>