<svg id="logo-frame" xmlns="http://www.w3.org/2000/svg" x="0px" y="0px" width="100%" height="100%">
<g id="logo">
 <path d="M24,71.1h9.5V57.9l9.7,13.3h11.5L41.3,54l11.5-13.7H41.9L33.6,51V40.3H24V71.1z M58.4,71.1h9.4V54.8l10.6,16.4h9.3V40.3
    h-9.3v16.2L67.8,40.3h-9.4V71.1z M91.7,71.1h9.9l1.5-5.2h10.8l1.5,5.2h10l-9.8-30.8h-14.1L91.7,71.1z M108.6,47.7l3.5,12.4H105
    L108.6,47.7z M143.6,39.5c-10.4,0-16.8,6.1-16.8,16.1c0,10,6.6,16.4,16.9,16.4c5,0,9.3-1.5,11.9-4.4c1.9-2,2.6-3.4,3.4-7.3h-10.4
    c-0.6,2.7-2.5,4.2-5.4,4.2c-1.6,0-3.1-0.5-4.3-1.4c-1.5-1.3-1.9-2.5-1.9-6.9v-3c0.1-4,2.2-6.3,6-6.3c2.9,0,4.8,1.4,5.6,4.3h10.2
    C158,43.7,152.5,39.5,143.6,39.5 M164.1,71.1h9.5V57.9l9.7,13.3h11.5L181.3,54l11.5-13.7h-11L173.5,51V40.3H164L164.1,71.1
    L164.1,71.1z"/>
  <path d="M24,22.6h10.5c0.3,2,1.4,3.1,3.1,3.1c1.7,0,2.9-1,2.9-2.6c0-1.4-0.9-2.1-3.7-2.8c-0.3-0.1-0.8-0.2-1.6-0.4
    c-0.9-0.3-1.7-0.4-2.1-0.6c-1.9-0.5-3.6-1.4-5-2.5c-2.1-1.6-3.4-4.1-3.4-6.7c0-5.9,5.3-9.9,12.8-9.9c7.1,0,11,3.1,12.2,9.4h-9.9
    c-0.2-1.8-1.1-2.9-2.7-2.9c-1.4,0-2.4,0.9-2.4,2.3c0,1.7,1.3,2.6,5.2,3.3c4.1,0.8,5.6,1.4,7.7,2.7c2.3,1.4,3.6,4.2,3.6,7.1
    c0,6.2-5.3,10.1-13.4,10.1c-4.6,0-8.2-1.2-10.7-3.7C25.4,26.8,24.7,25.7,24,22.6"/>
  <path d="M51.6,0.9H76v7.9h-7.4v23H59v-23h-7.4V0.9z"/>
  <path d="M79.6,0.9h9.6v19.5c0,2.8,1.8,4.5,4.8,4.5c3.4,0,4.9-1.9,4.9-6V1h9.4v18.6c0,4.3-0.5,6.4-1.9,8.3
    c-2.2,2.9-6.5,4.5-12.5,4.5c-9.2,0-14.4-3.8-14.4-10.7L79.6,0.9L79.6,0.9z"/>
  <path d="M123,8.4v15.9h0.2l0.5,0.1h0.7c5.4,0,8.7-3,8.7-8c0-5-3.1-8-8.4-8C124.7,8.4,123,8.4,123,8.4z M113.4,0.9h14.8
    c3.9,0,6.8,0.9,9.3,2.9c3.6,2.7,5.7,7.4,5.7,12.5c0,5.7-2.7,10.8-7,13.4c-2.8,1.7-4.2,2-9.3,2h-13.4V0.9L113.4,0.9z"/>
  <rect x="147.7" y="0.9" width="9.5" height="30.8"/>
  <path d="M178.8,24.9c2.4-0.1,4.5-1.4,5-3.1c0.3-1.2,0.5-3.1,0.5-5.6c0-4.4-0.1-5.1-1-6.5c-1-1.5-2.8-2.4-4.8-2.4
    c-2.9,0-5.2,1.5-5.8,3.8c-0.3,1.1-0.4,2.6-0.4,4.4c0,4.3,0.2,5.8,1.1,7.1c1,1.4,2.8,2.3,5,2.3C178.6,25,178.7,24.9,178.8,24.9
     M178.7,0c9.7,0,16.1,6.4,16.1,16c0,6.7-2.5,11.5-7.3,14.1c-2.7,1.4-5.9,2.2-9.1,2.2c-6.6,0-12.3-3.2-14.6-8.2
    c-1.1-2.4-1.7-5.2-1.7-8.2c0-5.2,1.4-8.6,4.6-11.6C169.8,1.4,173.7,0,178.7,0"/>
</g>
  
</svg>
