<svg id="logo-frame" xmlns="http://www.w3.org/2000/svg" x="0px" y="0px" width="100%" height="100%">
<g id="logo">
  <path d="M24,133.3h17.8v-24.9L60,133.3h21.6l-25.2-32.1L78,75.6H57.6l-15.7,20v-20H24V133.3z M88.4,133.3h17.7v-30.7l19.8,30.7
    h17.5V75.6H126V106l-19.9-30.4H88.4V133.3z M150.8,133.3h18.5l2.9-9.7h20.2l2.9,9.7h18.8l-18.3-57.8h-26.4L150.8,133.3z
     M182.5,89.3l6.6,23.2h-13.4L182.5,89.3z M248.1,74.1c-19.4,0-31.5,11.5-31.5,30.1c0,18.8,12.4,30.7,31.7,30.7
    c9.3,0,17.5-2.9,22.3-8.2c3.5-3.7,4.8-6.3,6.4-13.6h-19.4c-1.1,5-4.7,7.8-10.2,7.8c-3,0-5.8-0.9-8-2.7c-2.9-2.4-3.5-4.6-3.5-12.9
    v-5.7c0.1-7.5,4.1-11.8,11.3-11.8c5.5,0,9,2.7,10.5,8.1h19.1C275.1,81.9,264.7,74.1,248.1,74.1 M286.4,133.3h17.8v-24.9l18.2,24.9
    H344l-25.2-32.1l21.6-25.7h-20.6l-15.7,20v-20h-17.8v57.8H286.4z"/>
  <path d="M24,42.4h19.7c0.6,3.8,2.6,5.8,5.8,5.8c3.2,0,5.5-1.9,5.5-4.8c0-2.7-1.7-4-6.9-5.3c-0.5-0.1-1.5-0.4-3-0.8
    c-1.7-0.5-3.1-0.8-4-1.2c-3.5-1-6.7-2.7-9.4-4.6c-4-3-6.3-7.6-6.3-12.5c0-11,9.9-18.6,23.9-18.6C62.6,0.4,70,6.2,72.1,18H53.6
    c-0.3-3.4-2-5.4-5-5.4c-2.7,0-4.5,1.7-4.5,4.3c0,3.2,2.5,4.8,9.7,6.2c7.6,1.5,10.5,2.6,14.4,5c4.3,2.7,6.8,7.8,6.8,13.3
    c0,11.6-9.9,19-25.2,19c-8.7,0-15.4-2.3-20-7C26.6,50.3,25.4,48.2,24,42.4"/>
  <path d="M75.7,1.7h45.7v14.8h-13.9v43H89.6v-43H75.7V1.7z"/>
  <path d="M128.2,1.7h18v36.5c0,5.2,3.4,8.4,8.9,8.4c6.4,0,9.2-3.5,9.2-11.2V1.8H182v34.9c0,8-0.9,11.9-3.5,15.5
    c-4.1,5.5-12.2,8.5-23.4,8.5c-17.3,0-26.9-7.2-26.9-20.1L128.2,1.7L128.2,1.7z"/>
  <path d="M209.4,15.7v29.8h0.3l1,0.1h1.4c10.2,0,16.3-5.6,16.3-15c0-9.3-5.8-14.9-15.7-14.9C212.7,15.7,209.4,15.7,209.4,15.7z
     M191.5,1.7h27.7c7.3,0,12.7,1.6,17.5,5.4c6.7,5.1,10.6,13.9,10.6,23.5c0,10.7-5,20.2-13.1,25.1c-5.2,3.2-7.9,3.7-17.5,3.7h-25.2
    V1.7L191.5,1.7z"/>
  <rect x="255.8" y="1.7" width="17.8" height="57.8"/>
  <path d="M314.1,46.7c4.5-0.2,8.4-2.7,9.4-5.9c0.6-2.3,1-5.8,1-10.4c0-8.3-0.2-9.6-1.8-12.1c-1.9-2.8-5.2-4.5-9-4.5
    c-5.4,0-9.7,2.8-10.8,7.1c-0.5,2.1-0.7,4.9-0.7,8.3c0,8,0.4,10.9,2,13.3c1.8,2.7,5.3,4.3,9.3,4.3C313.7,46.8,313.9,46.7,314.1,46.7
     M313.8,0C331.9,0,344,12,344,30c0,12.5-4.7,21.5-13.6,26.4c-5,2.7-11,4.2-17,4.2c-12.4,0-23-6-27.4-15.4c-2-4.5-3.1-9.7-3.1-15.4
    c0-9.7,2.6-16.1,8.6-21.8C297.2,2.6,304.4,0,313.8,0"/>
</g>
  
</svg>
